# xmcd
# Track frame offsets:
# 150
# 14641
# 29662
# 49602
# 63665
# 79753
# 93892
# 112793
# 130698
# 147563
#
# Disc length: 2208 seconds
# Revision: 0
# Processed by: cddbd v1.4PL0 Copyright (c) Steve Scherf et al.
# Submitted via: VisiTrax 2.9.5.180 - For more info visit www.synapsa.com
#
DISCID=84089e0a
DTITLE=Stevie Cee - Storm in search of thunder
DYEAR=1900
DGENRE=
TTITLE0=Old enough to know better
TTITLE1=All mine
TTITLE2=What do you see in me
TTITLE3=I left something turned on at home
TTITLE4=Piano man
TTITLE5=A few too many
TTITLE6=I'll never fall in love again
TTITLE7=Here forever
TTITLE8=Sta with me
TTITLE9=Circus leaving town
EXTD=
EXTT0=
EXTT1=
EXTT2=
EXTT3=
EXTT4=
EXTT5=
EXTT6=
EXTT7=
EXTT8=
EXTT9=
PLAYORDER=
